<?xml version="1.0" encoding="UTF-8" standalone="no"?>
<!DOCTYPE svg PUBLIC "-//W3C//DTD SVG 1.1//EN"
 "http://www.w3.org/Graphics/SVG/1.1/DTD/svg11.dtd">
<!-- Generated by graphviz version 7.1.0 (20230121.1956)
 -->
<!-- Title: graph_title Pages: 1 -->
<svg width="990pt" height="534pt"
 viewBox="0.00 0.00 990.00 534.00" xmlns="http://www.w3.org/2000/svg" xmlns:xlink="http://www.w3.org/1999/xlink">
<g id="graph0" class="graph" transform="scale(1 1) rotate(0) translate(4 530)">
<title>graph_title</title>
<polygon fill="white" stroke="none" points="-4,4 -4,-530 986,-530 986,4 -4,4"/>
<!-- ApplicationController -->
<g id="node1" class="node">
<title>ApplicationController</title>
<path fill="none" stroke="black" d="M152,-195C152,-195 264,-195 264,-195 270,-195 276,-201 276,-207 276,-207 276,-230 276,-230 276,-236 270,-242 264,-242 264,-242 152,-242 152,-242 146,-242 140,-236 140,-230 140,-230 140,-207 140,-207 140,-201 146,-195 152,-195"/>
<text text-anchor="middle" x="208" y="-226.8" font-family="Times,serif" font-size="14.00">ApplicationController</text>
<polyline fill="none" stroke="black" points="140,-219 276,-219"/>
</g>
<!-- ActionController::Base -->
<g id="node13" class="node">
<title>ActionController::Base</title>
<path fill="none" stroke="black" d="M148.5,-84.5C148.5,-84.5 267.5,-84.5 267.5,-84.5 273.5,-84.5 279.5,-90.5 279.5,-96.5 279.5,-96.5 279.5,-119.5 279.5,-119.5 279.5,-125.5 273.5,-131.5 267.5,-131.5 267.5,-131.5 148.5,-131.5 148.5,-131.5 142.5,-131.5 136.5,-125.5 136.5,-119.5 136.5,-119.5 136.5,-96.5 136.5,-96.5 136.5,-90.5 142.5,-84.5 148.5,-84.5"/>
<text text-anchor="middle" x="208" y="-116.3" font-family="Times,serif" font-size="14.00">ActionController::Base</text>
<polyline fill="none" stroke="black" points="136.5,-108.5 279.5,-108.5"/>
</g>
<!-- ApplicationController&#45;&gt;ActionController::Base -->
<g id="edge1" class="edge">
<title>ApplicationController&#45;&gt;ActionController::Base</title>
<path fill="none" stroke="black" d="M208,-195.02C208,-179.89 208,-159.67 208,-142.63"/>
<polygon fill="none" stroke="black" points="211.5,-142.97 208,-132.97 204.5,-142.97 211.5,-142.97"/>
</g>
<!-- ChaptersController -->
<g id="node2" class="node">
<title>ChaptersController</title>
<path fill="none" stroke="black" d="M12,-313C12,-313 116,-313 116,-313 122,-313 128,-319 128,-325 128,-325 128,-506 128,-506 128,-512 122,-518 116,-518 116,-518 12,-518 12,-518 6,-518 0,-512 0,-506 0,-506 0,-325 0,-325 0,-319 6,-313 12,-313"/>
<text text-anchor="middle" x="64" y="-502.8" font-family="Times,serif" font-size="14.00">ChaptersController</text>
<polyline fill="none" stroke="black" points="0,-495 128,-495"/>
<polyline fill="none" stroke="black" points="0,-471 128,-471"/>
<text text-anchor="start" x="8" y="-455.8" font-family="Times,serif" font-size="14.00">I + index()</text>
<text text-anchor="start" x="8" y="-440.8" font-family="Times,serif" font-size="14.00">I + show()</text>
<text text-anchor="start" x="8" y="-425.8" font-family="Times,serif" font-size="14.00">I + new()</text>
<text text-anchor="start" x="8" y="-410.8" font-family="Times,serif" font-size="14.00">I + create()</text>
<text text-anchor="start" x="8" y="-395.8" font-family="Times,serif" font-size="14.00">I + destroy()</text>
<text text-anchor="start" x="8" y="-380.8" font-family="Times,serif" font-size="14.00">I + update()</text>
<text text-anchor="start" x="8" y="-365.8" font-family="Times,serif" font-size="14.00">I &#45; chapter_params()</text>
<text text-anchor="start" x="8" y="-350.8" font-family="Times,serif" font-size="14.00">I &#45; set_chapters()</text>
<text text-anchor="start" x="8" y="-335.8" font-family="Times,serif" font-size="14.00">I &#45; set_chapter()</text>
<text text-anchor="start" x="8" y="-320.8" font-family="Times,serif" font-size="14.00">I &#45; set_course()</text>
</g>
<!-- ChaptersController&#45;&gt;ApplicationController -->
<g id="edge2" class="edge">
<title>ChaptersController&#45;&gt;ApplicationController</title>
<path fill="none" stroke="black" d="M127.95,-317.39C130.97,-313.18 134,-309.03 137,-305 150.91,-286.33 167.48,-266.27 181.11,-250.27"/>
<polygon fill="none" stroke="black" points="183.51,-252.86 187.36,-242.99 178.2,-248.3 183.51,-252.86"/>
</g>
<!-- CoursesController -->
<g id="node3" class="node">
<title>CoursesController</title>
<path fill="none" stroke="black" d="M158,-313C158,-313 258,-313 258,-313 264,-313 270,-319 270,-325 270,-325 270,-506 270,-506 270,-512 264,-518 258,-518 258,-518 158,-518 158,-518 152,-518 146,-512 146,-506 146,-506 146,-325 146,-325 146,-319 152,-313 158,-313"/>
<text text-anchor="middle" x="208" y="-502.8" font-family="Times,serif" font-size="14.00">CoursesController</text>
<polyline fill="none" stroke="black" points="146,-495 270,-495"/>
<polyline fill="none" stroke="black" points="146,-471 270,-471"/>
<text text-anchor="start" x="154" y="-455.8" font-family="Times,serif" font-size="14.00">I + index()</text>
<text text-anchor="start" x="154" y="-440.8" font-family="Times,serif" font-size="14.00">I + show()</text>
<text text-anchor="start" x="154" y="-425.8" font-family="Times,serif" font-size="14.00">I + new()</text>
<text text-anchor="start" x="154" y="-410.8" font-family="Times,serif" font-size="14.00">I + create()</text>
<text text-anchor="start" x="154" y="-395.8" font-family="Times,serif" font-size="14.00">I + destroy()</text>
<text text-anchor="start" x="154" y="-380.8" font-family="Times,serif" font-size="14.00">I + update()</text>
<text text-anchor="start" x="154" y="-365.8" font-family="Times,serif" font-size="14.00">I &#45; validate_user()</text>
<text text-anchor="start" x="154" y="-350.8" font-family="Times,serif" font-size="14.00">I &#45; course_params()</text>
<text text-anchor="start" x="154" y="-335.8" font-family="Times,serif" font-size="14.00">I &#45; set_courses()</text>
<text text-anchor="start" x="154" y="-320.8" font-family="Times,serif" font-size="14.00">I &#45; set_course()</text>
</g>
<!-- CoursesController&#45;&gt;ApplicationController -->
<g id="edge3" class="edge">
<title>CoursesController&#45;&gt;ApplicationController</title>
<path fill="none" stroke="black" d="M208,-313C208,-291.41 208,-270.07 208,-253.25"/>
<polygon fill="none" stroke="black" points="211.5,-253.37 208,-243.37 204.5,-253.37 211.5,-253.37"/>
</g>
<!-- StagesController -->
<g id="node4" class="node">
<title>StagesController</title>
<path fill="none" stroke="black" d="M300,-305.5C300,-305.5 392,-305.5 392,-305.5 398,-305.5 404,-311.5 404,-317.5 404,-317.5 404,-513.5 404,-513.5 404,-519.5 398,-525.5 392,-525.5 392,-525.5 300,-525.5 300,-525.5 294,-525.5 288,-519.5 288,-513.5 288,-513.5 288,-317.5 288,-317.5 288,-311.5 294,-305.5 300,-305.5"/>
<text text-anchor="middle" x="346" y="-510.3" font-family="Times,serif" font-size="14.00">StagesController</text>
<polyline fill="none" stroke="black" points="288,-502.5 404,-502.5"/>
<polyline fill="none" stroke="black" points="288,-478.5 404,-478.5"/>
<text text-anchor="start" x="296" y="-463.3" font-family="Times,serif" font-size="14.00">I + index()</text>
<text text-anchor="start" x="296" y="-448.3" font-family="Times,serif" font-size="14.00">I + show()</text>
<text text-anchor="start" x="296" y="-433.3" font-family="Times,serif" font-size="14.00">I + new()</text>
<text text-anchor="start" x="296" y="-418.3" font-family="Times,serif" font-size="14.00">I + create()</text>
<text text-anchor="start" x="296" y="-403.3" font-family="Times,serif" font-size="14.00">I + destroy()</text>
<text text-anchor="start" x="296" y="-388.3" font-family="Times,serif" font-size="14.00">I + edit()</text>
<text text-anchor="start" x="296" y="-373.3" font-family="Times,serif" font-size="14.00">I + update()</text>
<text text-anchor="start" x="296" y="-358.3" font-family="Times,serif" font-size="14.00">I &#45; stage_params()</text>
<text text-anchor="start" x="296" y="-343.3" font-family="Times,serif" font-size="14.00">I &#45; set_stage()</text>
<text text-anchor="start" x="296" y="-328.3" font-family="Times,serif" font-size="14.00">I &#45; set_chapter()</text>
<text text-anchor="start" x="296" y="-313.3" font-family="Times,serif" font-size="14.00">I &#45; set_games()</text>
</g>
<!-- StagesController&#45;&gt;ApplicationController -->
<g id="edge4" class="edge">
<title>StagesController&#45;&gt;ApplicationController</title>
<path fill="none" stroke="black" d="M288.13,-318.14C285.1,-313.66 282.05,-309.26 279,-305 265.45,-286.07 248.9,-265.99 235.19,-250.05"/>
<polygon fill="none" stroke="black" points="238.09,-248.05 228.9,-242.8 232.81,-252.64 238.09,-248.05"/>
</g>
<!-- ApplicationRecord -->
<g id="node5" class="node">
<title>ApplicationRecord</title>
<path fill="none" stroke="black" d="M581.5,-84.5C581.5,-84.5 676.5,-84.5 676.5,-84.5 682.5,-84.5 688.5,-90.5 688.5,-96.5 688.5,-96.5 688.5,-119.5 688.5,-119.5 688.5,-125.5 682.5,-131.5 676.5,-131.5 676.5,-131.5 581.5,-131.5 581.5,-131.5 575.5,-131.5 569.5,-125.5 569.5,-119.5 569.5,-119.5 569.5,-96.5 569.5,-96.5 569.5,-90.5 575.5,-84.5 581.5,-84.5"/>
<text text-anchor="middle" x="629" y="-116.3" font-family="Times,serif" font-size="14.00">ApplicationRecord</text>
<polyline fill="none" stroke="black" points="569.5,-108.5 688.5,-108.5"/>
</g>
<!-- ActiveRecord::Base -->
<g id="node14" class="node">
<title>ActiveRecord::Base</title>
<path fill="none" stroke="black" d="M578.5,-0.5C578.5,-0.5 679.5,-0.5 679.5,-0.5 685.5,-0.5 691.5,-6.5 691.5,-12.5 691.5,-12.5 691.5,-35.5 691.5,-35.5 691.5,-41.5 685.5,-47.5 679.5,-47.5 679.5,-47.5 578.5,-47.5 578.5,-47.5 572.5,-47.5 566.5,-41.5 566.5,-35.5 566.5,-35.5 566.5,-12.5 566.5,-12.5 566.5,-6.5 572.5,-0.5 578.5,-0.5"/>
<text text-anchor="middle" x="629" y="-32.3" font-family="Times,serif" font-size="14.00">ActiveRecord::Base</text>
<polyline fill="none" stroke="black" points="566.5,-24.5 691.5,-24.5"/>
</g>
<!-- ApplicationRecord&#45;&gt;ActiveRecord::Base -->
<g id="edge5" class="edge">
<title>ApplicationRecord&#45;&gt;ActiveRecord::Base</title>
<path fill="none" stroke="black" d="M629,-84.59C629,-76.64 629,-67.5 629,-58.81"/>
<polygon fill="none" stroke="black" points="632.5,-58.89 629,-48.89 625.5,-58.89 632.5,-58.89"/>
</g>
<!-- Chapter -->
<g id="node6" class="node">
<title>Chapter</title>
<path fill="none" stroke="black" d="M306.5,-195C306.5,-195 341.5,-195 341.5,-195 347.5,-195 353.5,-201 353.5,-207 353.5,-207 353.5,-230 353.5,-230 353.5,-236 347.5,-242 341.5,-242 341.5,-242 306.5,-242 306.5,-242 300.5,-242 294.5,-236 294.5,-230 294.5,-230 294.5,-207 294.5,-207 294.5,-201 300.5,-195 306.5,-195"/>
<text text-anchor="middle" x="324" y="-226.8" font-family="Times,serif" font-size="14.00">Chapter</text>
<polyline fill="none" stroke="black" points="294.5,-219 353.5,-219"/>
</g>
<!-- Chapter&#45;&gt;ApplicationRecord -->
<g id="edge6" class="edge">
<title>Chapter&#45;&gt;ApplicationRecord</title>
<path fill="none" stroke="black" d="M336.76,-195.08C343.39,-185.36 352.35,-174.69 363,-168 422.21,-130.81 501.73,-116.89 558.36,-111.78"/>
<polygon fill="none" stroke="black" points="558.54,-115.27 568.22,-110.97 557.96,-108.3 558.54,-115.27"/>
</g>
<!-- Course -->
<g id="node7" class="node">
<title>Course</title>
<path fill="none" stroke="black" d="M384,-168.5C384,-168.5 482,-168.5 482,-168.5 488,-168.5 494,-174.5 494,-180.5 494,-180.5 494,-256.5 494,-256.5 494,-262.5 488,-268.5 482,-268.5 482,-268.5 384,-268.5 384,-268.5 378,-268.5 372,-262.5 372,-256.5 372,-256.5 372,-180.5 372,-180.5 372,-174.5 378,-168.5 384,-168.5"/>
<text text-anchor="middle" x="433" y="-253.3" font-family="Times,serif" font-size="14.00">Course</text>
<polyline fill="none" stroke="black" points="372,-245.5 494,-245.5"/>
<polyline fill="none" stroke="black" points="372,-221.5 494,-221.5"/>
<text text-anchor="start" x="380" y="-206.3" font-family="Times,serif" font-size="14.00">I &#45; link_game_set()</text>
<text text-anchor="start" x="380" y="-191.3" font-family="Times,serif" font-size="14.00">I &#45; pgn_path()</text>
<text text-anchor="start" x="380" y="-176.3" font-family="Times,serif" font-size="14.00">I &#45; save_pgn()</text>
</g>
<!-- Course&#45;&gt;ApplicationRecord -->
<g id="edge7" class="edge">
<title>Course&#45;&gt;ApplicationRecord</title>
<path fill="none" stroke="black" d="M493.66,-173.65C496.79,-171.69 499.91,-169.8 503,-168 522.74,-156.52 545.08,-145.48 565.41,-136.11"/>
<polygon fill="none" stroke="black" points="566.8,-139.32 574.45,-132 563.9,-132.95 566.8,-139.32"/>
</g>
<!-- Game -->
<g id="node8" class="node">
<title>Game</title>
<path fill="none" stroke="black" d="M524.5,-176C524.5,-176 603.5,-176 603.5,-176 609.5,-176 615.5,-182 615.5,-188 615.5,-188 615.5,-249 615.5,-249 615.5,-255 609.5,-261 603.5,-261 603.5,-261 524.5,-261 524.5,-261 518.5,-261 512.5,-255 512.5,-249 512.5,-249 512.5,-188 512.5,-188 512.5,-182 518.5,-176 524.5,-176"/>
<text text-anchor="middle" x="564" y="-245.8" font-family="Times,serif" font-size="14.00">Game</text>
<polyline fill="none" stroke="black" points="512.5,-238 615.5,-238"/>
<polyline fill="none" stroke="black" points="512.5,-214 615.5,-214"/>
<text text-anchor="start" x="520.5" y="-198.8" font-family="Times,serif" font-size="14.00">I + pgn_game()</text>
<text text-anchor="start" x="520.5" y="-183.8" font-family="Times,serif" font-size="14.00">I + positions()</text>
</g>
<!-- Game&#45;&gt;ApplicationRecord -->
<g id="edge8" class="edge">
<title>Game&#45;&gt;ApplicationRecord</title>
<path fill="none" stroke="black" d="M588.76,-176.17C595.74,-164.53 603.22,-152.04 609.82,-141.02"/>
<polygon fill="none" stroke="black" points="612.67,-143.07 614.81,-132.69 606.67,-139.47 612.67,-143.07"/>
</g>
<!-- GameSet -->
<g id="node9" class="node">
<title>GameSet</title>
<path fill="none" stroke="black" d="M645.5,-176.5C645.5,-176.5 744.5,-176.5 744.5,-176.5 750.5,-176.5 756.5,-182.5 756.5,-188.5 756.5,-188.5 756.5,-248.5 756.5,-248.5 756.5,-254.5 750.5,-260.5 744.5,-260.5 744.5,-260.5 645.5,-260.5 645.5,-260.5 639.5,-260.5 633.5,-254.5 633.5,-248.5 633.5,-248.5 633.5,-188.5 633.5,-188.5 633.5,-182.5 639.5,-176.5 645.5,-176.5"/>
<text text-anchor="middle" x="695" y="-245.3" font-family="Times,serif" font-size="14.00">GameSet</text>
<polyline fill="none" stroke="black" points="633.5,-237.5 756.5,-237.5"/>
<text text-anchor="start" x="641.5" y="-222.3" font-family="Times,serif" font-size="14.00">(ro) pgn_games</text>
<polyline fill="none" stroke="black" points="633.5,-214.5 756.5,-214.5"/>
<text text-anchor="start" x="641.5" y="-199.3" font-family="Times,serif" font-size="14.00">I + parsed_games()</text>
<text text-anchor="start" x="641.5" y="-184.3" font-family="Times,serif" font-size="14.00">I + build_games()</text>
</g>
<!-- GameSet&#45;&gt;ApplicationRecord -->
<g id="edge9" class="edge">
<title>GameSet&#45;&gt;ApplicationRecord</title>
<path fill="none" stroke="black" d="M670.24,-176.79C663.07,-165 655.34,-152.31 648.54,-141.12"/>
<polygon fill="none" stroke="black" points="651.57,-139.37 643.38,-132.64 645.59,-143.01 651.57,-139.37"/>
</g>
<!-- Moderator -->
<g id="node10" class="node">
<title>Moderator</title>
<path fill="none" stroke="black" d="M903,-392C903,-392 953,-392 953,-392 959,-392 965,-398 965,-404 965,-404 965,-427 965,-427 965,-433 959,-439 953,-439 953,-439 903,-439 903,-439 897,-439 891,-433 891,-427 891,-427 891,-404 891,-404 891,-398 897,-392 903,-392"/>
<text text-anchor="middle" x="928" y="-423.8" font-family="Times,serif" font-size="14.00">Moderator</text>
<polyline fill="none" stroke="black" points="891,-416 965,-416"/>
</g>
<!-- User -->
<g id="node12" class="node">
<title>User</title>
<path fill="none" stroke="black" d="M886,-183.5C886,-183.5 970,-183.5 970,-183.5 976,-183.5 982,-189.5 982,-195.5 982,-195.5 982,-241.5 982,-241.5 982,-247.5 976,-253.5 970,-253.5 970,-253.5 886,-253.5 886,-253.5 880,-253.5 874,-247.5 874,-241.5 874,-241.5 874,-195.5 874,-195.5 874,-189.5 880,-183.5 886,-183.5"/>
<text text-anchor="middle" x="928" y="-238.3" font-family="Times,serif" font-size="14.00">User</text>
<polyline fill="none" stroke="black" points="874,-230.5 982,-230.5"/>
<polyline fill="none" stroke="black" points="874,-206.5 982,-206.5"/>
<text text-anchor="start" x="882" y="-191.3" font-family="Times,serif" font-size="14.00">I + moderator?()</text>
</g>
<!-- Moderator&#45;&gt;User -->
<g id="edge10" class="edge">
<title>Moderator&#45;&gt;User</title>
<path fill="none" stroke="black" d="M928,-392.13C928,-361.17 928,-304.58 928,-264.64"/>
<polygon fill="none" stroke="black" points="931.5,-264.85 928,-254.85 924.5,-264.85 931.5,-264.85"/>
</g>
<!-- Stage -->
<g id="node11" class="node">
<title>Stage</title>
<path fill="none" stroke="black" d="M786.5,-176C786.5,-176 843.5,-176 843.5,-176 849.5,-176 855.5,-182 855.5,-188 855.5,-188 855.5,-249 855.5,-249 855.5,-255 849.5,-261 843.5,-261 843.5,-261 786.5,-261 786.5,-261 780.5,-261 774.5,-255 774.5,-249 774.5,-249 774.5,-188 774.5,-188 774.5,-182 780.5,-176 786.5,-176"/>
<text text-anchor="middle" x="815" y="-245.8" font-family="Times,serif" font-size="14.00">Stage</text>
<polyline fill="none" stroke="black" points="774.5,-238 855.5,-238"/>
<polyline fill="none" stroke="black" points="774.5,-214 855.5,-214"/>
<text text-anchor="start" x="782.5" y="-198.8" font-family="Times,serif" font-size="14.00">I + pgn()</text>
<text text-anchor="start" x="782.5" y="-183.8" font-family="Times,serif" font-size="14.00">I + course()</text>
</g>
<!-- Stage&#45;&gt;ApplicationRecord -->
<g id="edge11" class="edge">
<title>Stage&#45;&gt;ApplicationRecord</title>
<path fill="none" stroke="black" d="M776.6,-176.1C773.15,-173.19 769.6,-170.45 766,-168 745.5,-154.02 721.15,-142.24 698.71,-132.97"/>
<polygon fill="none" stroke="black" points="700.2,-129.79 689.61,-129.32 697.59,-136.29 700.2,-129.79"/>
</g>
<!-- User&#45;&gt;ApplicationRecord -->
<g id="edge12" class="edge">
<title>User&#45;&gt;ApplicationRecord</title>
<path fill="none" stroke="black" d="M890.06,-183.61C882.17,-177.76 873.62,-172.22 865,-168 812.51,-142.29 747.79,-127.13 699.41,-118.63"/>
<polygon fill="none" stroke="black" points="700.05,-115.19 689.6,-116.97 698.88,-122.09 700.05,-115.19"/>
</g>
</g>
</svg>
